# xmcd
#
# Track frame offsets:
#	150
#	18836
#	38331
#	68146
#	88985
#	109197
#	129347
#	147830
#	165664
#	181153
#	197419
#	217120
#	232284
#
# Disc length: 3330 seconds
#
# Revision: 2
# Processed by: cddbd v1.5.2PL0 Copyright (c) Steve Scherf et al.
# Submitted via: EasyCDDAExtractor 11.0.0.1
#
DISCID=b00d000d
DTITLE=Воскресение - Не Торопясь
DYEAR=2003
DGENRE=Blues
TTITLE0=Сотворю Тебе Мир
TTITLE1=Не Оставь Меня
TTITLE2=В Ваших Маленьких Домишках (Марсианская)
TTITLE3=Не Торопясь
TTITLE4=Посмотри, Как Я Живу
TTITLE5=Обними Меня Покрепче (Волчья)
TTITLE6=Спой Со Мной
TTITLE7=Листопад
TTITLE8=Атлантида
TTITLE9=Ветер (Дыхание Доброго Неба)
TTITLE10=Спешит Моя Радость
TTITLE11=Мне Говорили (Жизнь - Это Пятна)
TTITLE12=Не Оставь Меня (вар. 2-ой)
EXTD=
EXTT0=
EXTT1=
EXTT2=
EXTT3=
EXTT4=
EXTT5=
EXTT6=
EXTT7=
EXTT8=
EXTT9=
EXTT10=
EXTT11=
EXTT12=
PLAYORDER=
